<?xml version="1.0" encoding="UTF-8"?>
<svg width="118px" height="218px" viewBox="0 0 118 218" version="1.1" xmlns="http://www.w3.org/2000/svg" xmlns:xlink="http://www.w3.org/1999/xlink">
    <g id="Page-1" stroke="none" stroke-width="1" fill="none" fill-rule="evenodd">
        <g id="token-icon" transform="translate(9.000000, 9.000000)" fill="#F4F4F4" stroke="#979797" stroke-width="18">
            <path d="M69.5652174,164.980545 L84.3478261,164.980545 L84.3478261,200 L46.0869565,200 C37.9226087,200 31.3043478,194.077043 31.3043478,186.770428 L31.3043478,124.513619 L14.7826087,124.513619 C6.61826087,124.513619 0,118.590661 0,111.284047 L0,34.2412451 C0,26.9346304 6.61826087,21.0116732 14.7826087,21.0116732 L31.3043478,21.0116732 L31.3043478,13.229572 C31.3043478,5.9229572 37.9226087,0 46.0869565,0 L54.7826087,0 C62.9469565,0 69.5652174,5.9229572 69.5652174,13.229572 L69.5652174,21.0116732 L85.2173913,21.0116732 C93.3817391,21.0116732 100,26.9346304 100,34.2412451 L100,111.284047 C100,118.590661 93.3817391,124.513619 85.2173913,124.513619 L69.5652174,124.513619 L69.5652174,164.980545 Z" id="Path"></path>
        </g>
    </g>
</svg>